PathFileType	4	(X/Y/Z)	9_coords_data.trc
DataRate	CameraRate	NumFrames	NumMarkers	Units	OrigDataRate	OrigDataStartFrame	OrigNumFrames
30.0	30.0	5	21	m	30.0	38	47
Frame#	Time	THUMB_TIP	THUMB_IP	THUMB_MCP	THUMB_CMC	INDEX_TIP	INDEX_DIP	INDEX_PIP	INDEX_MCP	MIDDLE_TIP	MIDDLE_DIP	MIDDLE_PIP	MIDDLE_MCP	RING_TIP	RING_DIP	RING_PIP	RING_MCP	PINKY_TIP	PINKY_DIP	PINKY_PIP	PINKY_MCP	WRIST
X1	Y1	Z1	X2	Y2	Z2	X3	Y3	Z3	X4	Y4	Z4	X5	Y5	Z5	X6	Y6	Z6	X7	Y7	Z7	X8	Y8	Z8	X9	Y9	Z9	X10	Y10	Z10	X11	Y11	Z11	X12	Y12	Z12	X13	Y13	Z13	X14	Y14	Z14	X15	Y15	Z15	X16	Y16	Z16	X17	Y17	Z17	X18	Y18	Z18	X19	Y19	Z19	X20	Y20	Z20	X21	Y21	Z21
36	1.233333333333328	0.5612252868546103	-0.05657494076830638	-0.11409350226353654	0.5397540793431483	-0.05256233229525786	-0.10696004438942242	0.5098862870501766	-0.04853953888408624	-0.0991785203282286	0.48610433124837216	-0.03075515216295155	-0.06589152335953019	0.5850265653518112	-0.026252942184780803	-0.1424011466911091	0.5687127756364402	-0.01839300899152263	-0.14268700560766795	0.5460065522532781	-0.007713172184330319	-0.14114481935248407	0.5084216839444458	-0.007161504101592886	-0.1211270914460949	0.5974254230728392	0.0020161652782990647	-0.13660285095332692	0.5803806336224606	0.007065727400131228	-0.13314205986312538	0.5533421466474151	0.0157378128976412	-0.12657511953873002	0.5142134289706435	0.008979865907496998	-0.10609533617928246	0.5970838849309164	0.0031395307990081944	-0.10849907652931001	0.581675538209464	0.011865194617914354	-0.10511593564679511	0.5595371658774728	0.02254963143224875	-0.10112654227804563	0.5219149336043037	0.017032614665388524	-0.08738423538371742	0.5885176004538037	0.0022241694744732365	-0.07580811619113614	0.5769493785235198	0.01396490103093384	-0.07118951641514071	0.5589034915019868	0.023885179849537974	-0.06709732277758862	0.5239098359636364	0.016233147049239505	-0.06288141041056416	0.4622830810018609	-0.023011742144276925	-0.051989820119430985
37	1.2666666666666608	0.5609496504330307	-0.05614563772955139	-0.11502374558547923	0.5395735803700109	-0.052178579427785254	-0.1075855954733036	0.5098019003580014	-0.04823045811794158	-0.09940761238544626	0.4860999062643866	-0.03070812729350858	-0.06592517820772592	0.5850835321264936	-0.02590585250137678	-0.1421445619130301	0.5687731996477401	-0.01804067221816852	-0.14247921627972748	0.5460625305667314	-0.007363017451556209	-0.14098823285327478	0.5084148618360713	-0.0069606316895096665	-0.12108528787407646	0.5975360080076031	0.0018437120275083263	-0.13600684930365536	0.580501264980754	0.006997914722699061	-0.13265249026113973	0.5534704202104498	0.01581885702484198	-0.12625452512322405	0.5142100763523169	0.00914598271411926	-0.10599999304829189	0.5970202830908853	0.0026603711758801385	-0.10784042413382511	0.5816856041835718	0.011558104105366618	-0.10457270757250414	0.5596228338882063	0.022454508181827926	-0.10074092938262691	0.521865831231161	0.017211980220656398	-0.08726333742663528	0.5883422804883973	0.0022026623848825366	-0.07561004373322266	0.5768385528060327	0.014025491511239108	-0.07104003707469675	0.5588248071046864	0.024021909106468176	-0.06699175100908494	0.523825854495547	0.016393392020668585	-0.0627771935785969	0.462283081001861	-0.023011742144276925	-0.051989820119430985
39	1.3000000000000012	0.560617249242526	-0.055942031505104794	-0.11586469344579142	0.5393490259916712	-0.05195921223590649	-0.10813165843871275	0.5096740171680396	-0.047994366837648905	-0.09961732626964048	0.4861041555846245	-0.03066236245945997	-0.06594310394494385	0.5851346160833679	-0.0256568675292691	-0.14188616876224114	0.5688320097668109	-0.017777708972550932	-0.14226549411790684	0.5461310351390563	-0.007073323863016623	-0.14081921496891153	0.5084205276510839	-0.006757579923763246	-0.12103401785681744	0.5976630749693385	0.0015292718270041306	-0.1353789837922596	0.580645880218438	0.006811858722566622	-0.13213716971665962	0.5536395246169659	0.015822606132203543	-0.12590236913872938	0.5142306068701668	0.009297651600026824	-0.1058896209171819	0.5969455784410762	0.002055295383737943	-0.10714669645892738	0.5817089732781903	0.01116486314864129	-0.10400637191408302	0.5597397909440212	0.022300241406726817	-0.10032692119184294	0.5218464566678027	0.017368007914008055	-0.08711748803958075	0.5881512295368144	0.0021140811157511763	-0.07541147062407527	0.5767399289399133	0.01404537698897168	-0.07089191340319201	0.5587663081999753	0.024128170272342486	-0.0668796501887855	0.5237646844284638	0.01652608484460394	-0.06263959340768765	0.4622830810018609	-0.023011742144276925	-0.051989820119430985
40	1.3333333333333344	0.5603096310414228	-0.05581310269771422	-0.11661381397115633	0.5391485149579883	-0.05179728894922553	-0.10860879017101288	0.5095681382668832	-0.04780256606160016	-0.09978476026039906	0.48610948278029553	-0.03063360286932093	-0.06594974606410009	0.5852214871637598	-0.025499017452524253	-0.14158646307364353	0.5689309658106123	-0.017597375404678095	-0.14201420948257332	0.5462440701043119	-0.0068562866286169255	-0.14062007601829485	0.5084632540898719	-0.00660182809411447	-0.12096858024475987	0.5978320455713677	0.0009804436781558623	-0.13463231541910342	0.5808426673533326	0.006434102084537985	-0.13153092254636906	0.5538774565559687	0.015702319739640647	-0.12549875061982618	0.5142900142677574	0.009406187969743351	-0.1057670234066892	0.5968941961157183	0.00133829182249523	-0.10639902177318916	0.5817653025014528	0.010670766897520223	-0.10339544274438417	0.5599004974781502	0.022062130167123217	-0.09988159540095787	0.5218659124181453	0.01748017514816891	-0.08695500027627256	0.5879846106280747	0.001952079574101484	-0.07517439349228072	0.5766714509882526	0.013999361975497449	-0.07071620936587764	0.5587419949434236	0.02417731854365812	-0.06674684858192559	0.5237348449123065	0.016614386784674084	-0.062482465753447625	0.462283081001861	-0.023011742144276925	-0.051989820119430985
41	1.3666666666666676	0.560046008144971	-0.05575497023976261	-0.11724794213839862	0.5389859287767941	-0.05169339494978786	-0.10900314601175287	0.5094946486416694	-0.04766036893220382	-0.0999026461830016	0.48611436483030446	-0.030625654638615774	-0.06594574941907672	0.5853424799568467	-0.025450065253234233	-0.14124397892842172	0.5690700285234923	-0.017514352216790097	-0.14172541734850813	0.5464018101306842	-0.006726014289411331	-0.14039369941266944	0.5085434754282363	-0.006504488638995554	-0.12089155814706387	0.5980330191752177	0.0001735579441063395	-0.13376704409883966	0.5810850705406008	0.005846451754131232	-0.13083697363918007	0.5541818342825313	0.015445052160597439	-0.12504972048422963	0.5143888039738505	0.009464945398965585	-0.10563578263092721	0.5968657312589832	0.0005097416180788183	-0.10561249864683231	0.5818529435211947	0.010072114024845202	-0.10275291156223065	0.5601034255678847	0.02173434691392362	-0.09941663042306592	0.5219265938914267	0.017540873430917592	-0.08678076332599949	0.5878428703478041	0.001701311307120923	-0.07490754830255253	0.5766343063839859	0.013871993428019591	-0.07052091057178023	0.5587557518406606	0.024158088615856	-0.0666010187074415	0.5237395301679661	0.016652360315029147	-0.0623101314515363	0.4622830810018608	-0.023011742144276925	-0.051989820119430985
